<?xml version="1.0" encoding="UTF-8"?>
<svg width="20" height="20" fill="#5f6368" version="1.1" viewBox="0 -960 800 800" xmlns="http://www.w3.org/2000/svg">
 <path d="m398-320q21 0 35.5-14.5t14.5-35.5-14.5-35.5-35.5-14.5-35.5 14.5-14.5 35.5 14.5 35.5 35.5 14.5zm-36-154h74q0-33 7.5-52t42.5-52q26-26 41-49.5t15-56.5q0-56-41-86t-97-30q-57 0-92.5 30t-49.5 72l66 26q5-18 22.5-39t53.5-21q32 0 48 17.5t16 38.5q0 20-12 37.5t-30 32.5q-44 39-54 59t-10 73zm38 314q-83 0-156-31.5t-127-85.5-85.5-127-31.5-156 31.5-156 85.5-127 127-85.5 156-31.5 156 31.5 127 85.5 85.5 127 31.5 156-31.5 156-85.5 127-127 85.5-156 31.5zm0-80q134 0 227-93t93-227-93-227-227-93-227 93-93 227 93 227 227 93z" fill="#b39b3e"/>
</svg>
