<?xml version="1.0" encoding="UTF-8" standalone="no"?>
<svg
   width="13"
   height="13"
   viewBox="0 0 512 512"
   version="1.1"
   id="svg418"
   sodipodi:docname="icon-up.svg"
   inkscape:version="1.2.2 (b0a8486541, 2022-12-01)"
   xmlns:inkscape="http://www.inkscape.org/namespaces/inkscape"
   xmlns:sodipodi="http://sodipodi.sourceforge.net/DTD/sodipodi-0.dtd"
   xmlns="http://www.w3.org/2000/svg"
   xmlns:svg="http://www.w3.org/2000/svg">
  <defs
     id="defs422" />
  <sodipodi:namedview
     id="namedview420"
     pagecolor="#ffffff"
     bordercolor="#000000"
     borderopacity="0.25"
     inkscape:showpageshadow="2"
     inkscape:pageopacity="0.0"
     inkscape:pagecheckerboard="0"
     inkscape:deskcolor="#d1d1d1"
     showgrid="false"
     inkscape:zoom="79"
     inkscape:cx="6.4683544"
     inkscape:cy="6.3860759"
     inkscape:window-width="2560"
     inkscape:window-height="1313"
     inkscape:window-x="0"
     inkscape:window-y="0"
     inkscape:window-maximized="1"
     inkscape:current-layer="svg418" />
  <!--!Font Awesome Free 6.7.2 by @fontawesome - https://fontawesome.com License - https://fontawesome.com/license/free Copyright 2025 Fonticons, Inc.-->
  <!--
    Icon Name: circle-check
    Icon Family: classic
    Icon Style: solid
  -->
  <path
     id="path416"
     d="M 256 0 C 114.61515 0 2.3320354e-14 114.61525 0 256 C 0 397.38475 114.61515 512 256 512 C 397.38485 512 512 397.38475 512 256 C 512 114.61525 397.38485 0 256 0 z M 256 160.23077 C 262.13533 160.23077 268.32368 162.55445 273 167.23077 L 416.61538 310.84615 C 425.96803 320.19878 425.96803 335.41659 416.61538 344.76923 C 407.26275 354.12186 392.12185 354.12186 382.76923 344.76923 L 256 218 L 129.23077 344.69231 C 119.87815 354.04495 104.73723 354.04495 95.384615 344.69231 C 86.031973 335.33968 86.031973 320.12186 95.384615 310.76923 L 239 167.15385 L 239.07692 167.23077 C 243.75324 162.55445 249.86467 160.23077 256 160.23077 z "
     style="fill:#649c35;fill-opacity:1" />
</svg>
