<?xml version="1.0" encoding="UTF-8" standalone="no"?>
<svg
   width="13"
   height="13"
   viewBox="0 0 512 512"
   version="1.1"
   id="svg293"
   sodipodi:docname="icon-down.svg"
   inkscape:version="1.2.2 (b0a8486541, 2022-12-01)"
   xmlns:inkscape="http://www.inkscape.org/namespaces/inkscape"
   xmlns:sodipodi="http://sodipodi.sourceforge.net/DTD/sodipodi-0.dtd"
   xmlns="http://www.w3.org/2000/svg"
   xmlns:svg="http://www.w3.org/2000/svg">
  <defs
     id="defs297" />
  <sodipodi:namedview
     id="namedview295"
     pagecolor="#ffffff"
     bordercolor="#000000"
     borderopacity="0.25"
     inkscape:showpageshadow="2"
     inkscape:pageopacity="0.0"
     inkscape:pagecheckerboard="0"
     inkscape:deskcolor="#d1d1d1"
     showgrid="false"
     inkscape:zoom="79"
     inkscape:cx="5.7721519"
     inkscape:cy="7.1075949"
     inkscape:window-width="2560"
     inkscape:window-height="1313"
     inkscape:window-x="0"
     inkscape:window-y="0"
     inkscape:window-maximized="1"
     inkscape:current-layer="svg293" />
  <!--!Font Awesome Free 6.7.2 by @fontawesome - https://fontawesome.com License - https://fontawesome.com/license/free Copyright 2025 Fonticons, Inc.-->
  <!--
    Icon Name: circle-xmark
    Icon Family: classic
    Icon Style: solid
  -->
  <path
     id="path291"
     d="M 256 0 C 114.61515 0 2.3320354e-14 114.61525 0 256 C 0 397.38475 114.61515 512 256 512 C 397.38485 512 512 397.38475 512 256 C 512 114.61525 397.38485 0 256 0 z M 382.76923 167.23077 C 392.12185 157.87814 407.26275 157.87814 416.61538 167.23077 C 425.96803 176.58342 425.96803 191.80122 416.61538 201.15385 L 273 344.76923 C 263.64736 354.12187 248.42955 354.12187 239.07692 344.76923 L 239 344.84615 L 95.384615 201.23077 C 86.031978 191.87814 86.031978 176.66032 95.384615 167.30769 C 104.73724 157.95505 119.87815 157.95505 129.23077 167.30769 L 256 294 L 382.76923 167.23077 z "
     style="fill:#c63d3d;fill-opacity:1" />
</svg>
